<svg width="30" height="31" viewBox="0 0 30 31" fill="none" xmlns="http://www.w3.org/2000/svg">
<path d="M5.35714 4.78571C5.07298 4.78571 4.80046 4.8986 4.59953 5.09953C4.3986 5.30046 4.28571 5.57298 4.28571 5.85714C4.28571 6.1413 4.3986 6.41383 4.59953 6.61476C4.80046 6.81569 5.07298 6.92857 5.35714 6.92857H24.6429C24.927 6.92857 25.1995 6.81569 25.4005 6.61476C25.6014 6.41383 25.7143 6.1413 25.7143 5.85714C25.7143 5.57298 25.6014 5.30046 25.4005 5.09953C25.1995 4.8986 24.927 4.78571 24.6429 4.78571H5.35714ZM7.5 17.6429C8.35248 17.6429 9.17005 17.3042 9.77284 16.7014C10.3756 16.0986 10.7143 15.2811 10.7143 14.4286C10.7143 13.5761 10.3756 12.7585 9.77284 12.1557C9.17005 11.5529 8.35248 11.2143 7.5 11.2143C6.64752 11.2143 5.82995 11.5529 5.22716 12.1557C4.62436 12.7585 4.28571 13.5761 4.28571 14.4286C4.28571 15.2811 4.62436 16.0986 5.22716 16.7014C5.82995 17.3042 6.64752 17.6429 7.5 17.6429ZM7.5 15.5C7.21584 15.5 6.94332 15.3871 6.74239 15.1862C6.54145 14.9853 6.42857 14.7127 6.42857 14.4286C6.42857 14.1444 6.54145 13.8719 6.74239 13.671C6.94332 13.47 7.21584 13.3571 7.5 13.3571C7.78416 13.3571 8.05668 13.47 8.25761 13.671C8.45855 13.8719 8.57143 14.1444 8.57143 14.4286C8.57143 14.7127 8.45855 14.9853 8.25761 15.1862C8.05668 15.3871 7.78416 15.5 7.5 15.5ZM10.7143 23C10.7143 23.8525 10.3756 24.67 9.77284 25.2728C9.17005 25.8756 8.35248 26.2143 7.5 26.2143C6.64752 26.2143 5.82995 25.8756 5.22716 25.2728C4.62436 24.67 4.28571 23.8525 4.28571 23C4.28571 22.1475 4.62436 21.33 5.22716 20.7272C5.82995 20.1244 6.64752 19.7857 7.5 19.7857C8.35248 19.7857 9.17005 20.1244 9.77284 20.7272C10.3756 21.33 10.7143 22.1475 10.7143 23ZM8.57143 23C8.57143 22.7158 8.45855 22.4433 8.25761 22.2424C8.05668 22.0415 7.78416 21.9286 7.5 21.9286C7.21584 21.9286 6.94332 22.0415 6.74239 22.2424C6.54145 22.4433 6.42857 22.7158 6.42857 23C6.42857 23.2842 6.54145 23.5567 6.74239 23.7576C6.94332 23.9585 7.21584 24.0714 7.5 24.0714C7.78416 24.0714 8.05668 23.9585 8.25761 23.7576C8.45855 23.5567 8.57143 23.2842 8.57143 23ZM12.8571 14.4286C12.8571 14.1444 12.97 13.8719 13.171 13.671C13.3719 13.47 13.6444 13.3571 13.9286 13.3571H24.6429C24.927 13.3571 25.1995 13.47 25.4005 13.671C25.6014 13.8719 25.7143 14.1444 25.7143 14.4286C25.7143 14.7127 25.6014 14.9853 25.4005 15.1862C25.1995 15.3871 24.927 15.5 24.6429 15.5H13.9286C13.6444 15.5 13.3719 15.3871 13.171 15.1862C12.97 14.9853 12.8571 14.7127 12.8571 14.4286ZM13.9286 21.9286C13.6444 21.9286 13.3719 22.0415 13.171 22.2424C12.97 22.4433 12.8571 22.7158 12.8571 23C12.8571 23.2842 12.97 23.5567 13.171 23.7576C13.3719 23.9585 13.6444 24.0714 13.9286 24.0714H24.6429C24.927 24.0714 25.1995 23.9585 25.4005 23.7576C25.6014 23.5567 25.7143 23.2842 25.7143 23C25.7143 22.7158 25.6014 22.4433 25.4005 22.2424C25.1995 22.0415 24.927 21.9286 24.6429 21.9286H13.9286ZM6.42857 0.5C4.72361 0.5 3.08848 1.17729 1.88289 2.38289C0.677294 3.58848 0 5.22361 0 6.92857V24.0714C0 25.7764 0.677294 27.4115 1.88289 28.6171C3.08848 29.8227 4.72361 30.5 6.42857 30.5H23.5714C25.2764 30.5 26.9115 29.8227 28.1171 28.6171C29.3227 27.4115 30 25.7764 30 24.0714V6.92857C30 5.22361 29.3227 3.58848 28.1171 2.38289C26.9115 1.17729 25.2764 0.5 23.5714 0.5H6.42857ZM2.14286 6.92857C2.14286 5.79193 2.59439 4.70184 3.39811 3.89811C4.20184 3.09439 5.29193 2.64286 6.42857 2.64286H23.5714C24.7081 2.64286 25.7982 3.09439 26.6019 3.89811C27.4056 4.70184 27.8571 5.79193 27.8571 6.92857V24.0714C27.8571 25.2081 27.4056 26.2982 26.6019 27.1019C25.7982 27.9056 24.7081 28.3571 23.5714 28.3571H6.42857C5.29193 28.3571 4.20184 27.9056 3.39811 27.1019C2.59439 26.2982 2.14286 25.2081 2.14286 24.0714V6.92857Z" fill="#757070"/>
</svg>
