<svg width="25" height="26" viewBox="0 0 25 26" fill="none" xmlns="http://www.w3.org/2000/svg">
<path d="M14.0183 23.4997C13.8135 23.8536 13.5191 24.1474 13.1649 24.3516C12.8106 24.5559 12.4089 24.6634 12 24.6634C11.5911 24.6634 11.1894 24.5559 10.8351 24.3516C10.4809 24.1474 10.1865 23.8536 9.98167 23.4997M19.1563 11.833C19.8342 18.1038 22.5 19.9997 22.5 19.9997H1.5C1.5 19.9997 5 17.5112 5 8.79967C5 6.81984 5.73733 4.92051 7.04983 3.52051C8.3635 2.12051 10.145 1.33301 12 1.33301C12.3932 1.33301 12.784 1.36801 13.1667 1.43801L19.1563 11.833ZM20.1667 8.33301C21.0949 8.33301 21.9852 7.96426 22.6415 7.30788C23.2979 6.6515 23.6667 5.76127 23.6667 4.83301C23.6667 3.90475 23.2979 3.01451 22.6415 2.35813C21.9852 1.70176 21.0949 1.33301 20.1667 1.33301C19.2384 1.33301 18.3482 1.70176 17.6918 2.35813C17.0354 3.01451 16.6667 3.90475 16.6667 4.83301C16.6667 5.76127 17.0354 6.6515 17.6918 7.30788C18.3482 7.96426 19.2384 8.33301 20.1667 8.33301Z" stroke="white" stroke-width="1.5" stroke-linecap="round" stroke-linejoin="round"/>
</svg>
