<svg width="17" height="17" viewBox="0 0 17 17" fill="none" xmlns="http://www.w3.org/2000/svg">
<g clip-path="url(#clip0_2491_2332)">
<path d="M15.273 8.36882C15.273 4.51901 12.1629 1.39453 8.33084 1.39453C4.49876 1.39453 1.38867 4.51901 1.38867 8.36882C1.38867 11.7444 3.77678 14.555 6.9424 15.2036V10.4611H5.55397V8.36882H6.9424V6.62524C6.9424 5.27921 8.03232 4.18424 9.37216 4.18424H11.1077V6.27653H9.71927C9.33745 6.27653 9.02505 6.59037 9.02505 6.97396V8.36882H11.1077V10.4611H9.02505V15.3082C12.5308 14.9595 15.273 11.9885 15.273 8.36882Z" fill="#3182CE"/>
</g>
<rect x="0.25" y="0.25" width="16.1612" height="16.2383" stroke="url(#paint0_linear_2491_2332)" stroke-opacity="0.33" stroke-width="0.5"/>
<defs>
<linearGradient id="paint0_linear_2491_2332" x1="0" y1="0" x2="16.5005" y2="0" gradientUnits="userSpaceOnUse">
<stop stop-color="#E0E1E2" stop-opacity="0"/>
<stop offset="0.5" stop-color="#E0E1E2"/>
<stop offset="1" stop-color="#E0E1E2" stop-opacity="0.15625"/>
</linearGradient>
<clipPath id="clip0_2491_2332">
<rect width="16.6612" height="16.7383" fill="white"/>
</clipPath>
</defs>
</svg>
