<svg width="17" height="17" viewBox="0 0 17 17" fill="none" xmlns="http://www.w3.org/2000/svg">
<g clip-path="url(#clip0_2491_2333)">
<path d="M16.241 3.58026C15.655 3.83603 15.0351 4.00453 14.4007 4.08045C15.0674 3.68827 15.5688 3.06522 15.8108 2.32816C15.1805 2.69843 14.492 2.95822 13.775 3.09642C13.473 2.7785 13.1099 2.52559 12.7076 2.35305C12.3053 2.18052 11.8723 2.09197 11.4349 2.09278C9.66402 2.09278 8.2309 3.51161 8.2309 5.26063C8.22964 5.50391 8.25739 5.74647 8.31355 5.98312C7.04368 5.92331 5.80023 5.59787 4.66273 5.02762C3.52523 4.45736 2.51874 3.65485 1.70765 2.67143C1.4231 3.15334 1.27262 3.7032 1.27192 4.26352C1.27192 5.36197 1.84237 6.33292 2.70374 6.90176C2.1934 6.8896 1.69352 6.7539 1.24654 6.50619V6.54542C1.24654 8.08194 2.35295 9.3602 3.81731 9.65115C3.54194 9.7249 3.25817 9.76227 2.97318 9.76231C2.77097 9.76266 2.56921 9.74295 2.37084 9.70346C2.77794 10.9621 3.96277 11.8775 5.36628 11.9036C4.22583 12.7866 2.82565 13.2639 1.38582 13.2603C1.13024 13.26 0.874905 13.2447 0.621094 13.2146C2.08584 14.1542 3.78849 14.6512 5.52638 14.6465C11.4281 14.6465 14.6523 9.81788 14.6523 5.63005C14.6523 5.49274 14.6487 5.35543 14.6422 5.2214C15.268 4.77419 15.8094 4.21845 16.241 3.58026Z" fill="#3182CE"/>
</g>
<rect x="0.112305" y="0.0117187" width="16.6378" height="16.7148" stroke="url(#paint0_linear_2491_2333)" stroke-opacity="0.33" stroke-width="0.0234375"/>
<defs>
<linearGradient id="paint0_linear_2491_2333" x1="0.100586" y1="0" x2="16.6011" y2="0" gradientUnits="userSpaceOnUse">
<stop stop-color="#E0E1E2" stop-opacity="0"/>
<stop offset="0.5" stop-color="#E0E1E2"/>
<stop offset="1" stop-color="#E0E1E2" stop-opacity="0.15625"/>
</linearGradient>
<clipPath id="clip0_2491_2333">
<rect x="0.100586" width="16.6612" height="16.7383" fill="white"/>
</clipPath>
</defs>
</svg>
