<svg width="28" height="29" viewBox="0 0 28 29" fill="none" xmlns="http://www.w3.org/2000/svg">
<path d="M14.0119 20.3335C13.0202 20.3335 12.0169 20.0768 11.2352 19.5752L4.21187 14.9902C2.9052 14.1385 2.12354 12.7035 2.12354 11.1402C2.12354 9.57683 2.9052 8.14183 4.21187 7.29016L11.2469 2.71683C12.8102 1.70183 15.2485 1.70183 16.8002 2.7285L23.7885 7.3135C25.0835 8.16516 25.8652 9.60016 25.8652 11.1518C25.8652 12.7035 25.0835 14.1385 23.7885 14.9902L16.8002 19.5752C16.0185 20.0885 15.0152 20.3335 14.0119 20.3335ZM14.0119 3.7085C13.3469 3.7085 12.6819 3.86016 12.2035 4.18683L5.1802 8.76016C4.36353 9.29683 3.8852 10.1602 3.8852 11.1402C3.8852 12.1202 4.35187 12.9835 5.1802 13.5202L12.2035 18.1052C13.1719 18.7352 14.8752 18.7352 15.8435 18.1052L22.8319 13.5202C23.6485 12.9835 24.1152 12.1202 24.1152 11.1402C24.1152 10.1602 23.6485 9.29683 22.8319 8.76016L15.8435 4.17516C15.3535 3.87183 14.6885 3.7085 14.0119 3.7085Z" fill="#757070"/>
<path d="M14 27.0414C13.4867 27.0414 12.9617 26.9714 12.5417 26.8314L8.82005 25.5948C7.05838 25.0114 5.67005 23.0864 5.68171 21.2314L5.69338 15.7598C5.69338 15.2814 6.09005 14.8848 6.56838 14.8848C7.04671 14.8848 7.44338 15.2814 7.44338 15.7598L7.43171 21.2314C7.43171 22.3281 8.34171 23.5881 9.38005 23.9381L13.1017 25.1748C13.5684 25.3264 14.4317 25.3264 14.8984 25.1748L18.62 23.9381C19.6584 23.5881 20.5684 22.3281 20.5684 21.2431V15.8298C20.5684 15.3514 20.965 14.9548 21.4434 14.9548C21.9217 14.9548 22.3184 15.3514 22.3184 15.8298V21.2431C22.3184 23.0981 20.9417 25.0114 19.1801 25.6064L15.4584 26.8431C15.0384 26.9714 14.5134 27.0414 14 27.0414Z" fill="#757070"/>
<path d="M24.9668 18.875C24.4885 18.875 24.0918 18.4783 24.0918 18V11C24.0918 10.5217 24.4885 10.125 24.9668 10.125C25.4451 10.125 25.8418 10.5217 25.8418 11V18C25.8418 18.4783 25.4451 18.875 24.9668 18.875Z" fill="#757070"/>
</svg>
