<svg width="29" height="29" viewBox="0 0 29 29" fill="none" xmlns="http://www.w3.org/2000/svg">
<path d="M14.5 18.875C12.085 18.875 10.125 16.915 10.125 14.5C10.125 12.085 12.085 10.125 14.5 10.125C16.915 10.125 18.875 12.085 18.875 14.5C18.875 16.915 16.915 18.875 14.5 18.875ZM14.5 11.875C13.0533 11.875 11.875 13.0533 11.875 14.5C11.875 15.9467 13.0533 17.125 14.5 17.125C15.9467 17.125 17.125 15.9467 17.125 14.5C17.125 13.0533 15.9467 11.875 14.5 11.875Z" fill="#757070"/>
<path d="M18.2452 26.3883C18.0002 26.3883 17.7552 26.3533 17.5102 26.295C16.7868 26.0967 16.1802 25.6417 15.7952 25L15.6552 24.7667C14.9668 23.5767 14.0218 23.5767 13.3335 24.7667L13.2052 24.9883C12.8202 25.6417 12.2135 26.1083 11.4902 26.295C10.7552 26.4933 9.99683 26.3883 9.35516 26.0033L7.3485 24.8483C6.63683 24.44 6.1235 23.775 5.90183 22.97C5.69183 22.165 5.79683 21.3367 6.20516 20.625C6.5435 20.03 6.63683 19.4933 6.4385 19.155C6.24016 18.8167 5.7385 18.6183 5.05016 18.6183C3.34683 18.6183 1.9585 17.23 1.9585 15.5267V13.4733C1.9585 11.77 3.34683 10.3817 5.05016 10.3817C5.7385 10.3817 6.24016 10.1833 6.4385 9.84501C6.63683 9.50668 6.55516 8.97001 6.20516 8.37501C5.79683 7.66334 5.69183 6.82334 5.90183 6.03001C6.11183 5.22501 6.62516 4.56001 7.3485 4.15168L9.36683 2.99668C10.6852 2.21501 12.4235 2.67001 13.2168 4.01168L13.3568 4.24501C14.0452 5.43501 14.9902 5.43501 15.6785 4.24501L15.8068 4.02334C16.6002 2.67001 18.3385 2.21501 19.6685 3.00834L21.6752 4.16334C22.3868 4.57168 22.9002 5.23668 23.1218 6.04168C23.3318 6.84668 23.2268 7.67501 22.8185 8.38668C22.4802 8.98168 22.3868 9.51834 22.5852 9.85668C22.7835 10.195 23.2852 10.3933 23.9735 10.3933C25.6768 10.3933 27.0652 11.7817 27.0652 13.485V15.5383C27.0652 17.2417 25.6768 18.63 23.9735 18.63C23.2852 18.63 22.7835 18.8283 22.5852 19.1667C22.3868 19.505 22.4685 20.0417 22.8185 20.6367C23.2268 21.3483 23.3435 22.1883 23.1218 22.9817C22.9118 23.7867 22.3985 24.4517 21.6752 24.86L19.6568 26.015C19.2135 26.26 18.7352 26.3883 18.2452 26.3883ZM14.5002 22.0717C15.5385 22.0717 16.5068 22.725 17.1718 23.88L17.3002 24.1017C17.4402 24.3467 17.6735 24.5217 17.9535 24.5917C18.2335 24.6617 18.5135 24.6267 18.7468 24.4867L20.7652 23.32C21.0685 23.145 21.3018 22.8533 21.3952 22.5033C21.4885 22.1533 21.4418 21.7917 21.2668 21.4883C20.6018 20.345 20.5202 19.1667 21.0335 18.2683C21.5468 17.37 22.6085 16.8567 23.9385 16.8567C24.6852 16.8567 25.2802 16.2617 25.2802 15.515V13.4617C25.2802 12.7267 24.6852 12.12 23.9385 12.12C22.6085 12.12 21.5468 11.6067 21.0335 10.7083C20.5202 9.81001 20.6018 8.63168 21.2668 7.48834C21.4418 7.18501 21.4885 6.82334 21.3952 6.47334C21.3018 6.12334 21.0802 5.84334 20.7768 5.65668L18.7585 4.50168C18.2568 4.19834 17.5918 4.37334 17.2885 4.88668L17.1602 5.10834C16.4952 6.26334 15.5268 6.91668 14.4885 6.91668C13.4502 6.91668 12.4818 6.26334 11.8168 5.10834L11.6885 4.87501C11.3968 4.38501 10.7435 4.21001 10.2418 4.50168L8.2235 5.66834C7.92016 5.84334 7.68683 6.13501 7.5935 6.48501C7.50016 6.83501 7.54683 7.19668 7.72183 7.50001C8.38683 8.64334 8.4685 9.82168 7.95516 10.72C7.44183 11.6183 6.38016 12.1317 5.05016 12.1317C4.3035 12.1317 3.7085 12.7267 3.7085 13.4733V15.5267C3.7085 16.2617 4.3035 16.8683 5.05016 16.8683C6.38016 16.8683 7.44183 17.3817 7.95516 18.28C8.4685 19.1783 8.38683 20.3567 7.72183 21.5C7.54683 21.8033 7.50016 22.165 7.5935 22.515C7.68683 22.865 7.9085 23.145 8.21183 23.3317L10.2302 24.4867C10.4752 24.6383 10.7668 24.6733 11.0352 24.6033C11.3152 24.5333 11.5485 24.3467 11.7002 24.1017L11.8285 23.88C12.4935 22.7367 13.4618 22.0717 14.5002 22.0717Z" fill="#757070"/>
</svg>
