<svg width="29" height="29" viewBox="0 0 29 29" fill="none" xmlns="http://www.w3.org/2000/svg">
<path d="M14.5 18.875C12.085 18.875 10.125 16.915 10.125 14.5C10.125 12.085 12.085 10.125 14.5 10.125C16.915 10.125 18.875 12.085 18.875 14.5C18.875 16.915 16.915 18.875 14.5 18.875ZM14.5 11.875C13.0533 11.875 11.875 13.0533 11.875 14.5C11.875 15.9467 13.0533 17.125 14.5 17.125C15.9467 17.125 17.125 15.9467 17.125 14.5C17.125 13.0533 15.9467 11.875 14.5 11.875Z" fill="white"/>
<path d="M18.2447 26.3883C17.9997 26.3883 17.7547 26.3533 17.5097 26.295C16.7863 26.0967 16.1797 25.6417 15.7947 25L15.6547 24.7667C14.9663 23.5767 14.0213 23.5767 13.333 24.7667L13.2047 24.9883C12.8197 25.6417 12.213 26.1083 11.4897 26.295C10.7547 26.4933 9.99634 26.3883 9.35467 26.0033L7.34801 24.8483C6.63634 24.44 6.12301 23.775 5.90134 22.97C5.69134 22.165 5.79634 21.3367 6.20467 20.625C6.54301 20.03 6.63634 19.4933 6.43801 19.155C6.23967 18.8167 5.73801 18.6183 5.04967 18.6183C3.34634 18.6183 1.95801 17.23 1.95801 15.5267V13.4733C1.95801 11.77 3.34634 10.3817 5.04967 10.3817C5.73801 10.3817 6.23967 10.1833 6.43801 9.84501C6.63634 9.50668 6.55467 8.97001 6.20467 8.37501C5.79634 7.66334 5.69134 6.82334 5.90134 6.03001C6.11134 5.22501 6.62467 4.56001 7.34801 4.15168L9.36634 2.99668C10.6847 2.21501 12.423 2.67001 13.2163 4.01168L13.3563 4.24501C14.0447 5.43501 14.9897 5.43501 15.678 4.24501L15.8063 4.02334C16.5997 2.67001 18.338 2.21501 19.668 3.00834L21.6747 4.16334C22.3863 4.57168 22.8997 5.23668 23.1213 6.04168C23.3313 6.84668 23.2263 7.67501 22.818 8.38668C22.4797 8.98168 22.3863 9.51834 22.5847 9.85668C22.783 10.195 23.2847 10.3933 23.973 10.3933C25.6763 10.3933 27.0647 11.7817 27.0647 13.485V15.5383C27.0647 17.2417 25.6763 18.63 23.973 18.63C23.2847 18.63 22.783 18.8283 22.5847 19.1667C22.3863 19.505 22.468 20.0417 22.818 20.6367C23.2263 21.3483 23.343 22.1883 23.1213 22.9817C22.9113 23.7867 22.398 24.4517 21.6747 24.86L19.6563 26.015C19.213 26.26 18.7347 26.3883 18.2447 26.3883ZM14.4997 22.0717C15.538 22.0717 16.5063 22.725 17.1713 23.88L17.2997 24.1017C17.4397 24.3467 17.673 24.5217 17.953 24.5917C18.233 24.6617 18.513 24.6267 18.7463 24.4867L20.7647 23.32C21.068 23.145 21.3013 22.8533 21.3947 22.5033C21.488 22.1533 21.4413 21.7917 21.2663 21.4883C20.6013 20.345 20.5197 19.1667 21.033 18.2683C21.5463 17.37 22.608 16.8567 23.938 16.8567C24.6847 16.8567 25.2797 16.2617 25.2797 15.515V13.4617C25.2797 12.7267 24.6847 12.12 23.938 12.12C22.608 12.12 21.5463 11.6067 21.033 10.7083C20.5197 9.81001 20.6013 8.63168 21.2663 7.48834C21.4413 7.18501 21.488 6.82334 21.3947 6.47334C21.3013 6.12334 21.0797 5.84334 20.7763 5.65668L18.758 4.50168C18.2563 4.19834 17.5913 4.37334 17.288 4.88668L17.1597 5.10834C16.4947 6.26334 15.5263 6.91668 14.488 6.91668C13.4497 6.91668 12.4813 6.26334 11.8163 5.10834L11.688 4.87501C11.3963 4.38501 10.743 4.21001 10.2413 4.50168L8.22301 5.66834C7.91967 5.84334 7.68634 6.13501 7.59301 6.48501C7.49967 6.83501 7.54634 7.19668 7.72134 7.50001C8.38634 8.64334 8.46801 9.82168 7.95467 10.72C7.44134 11.6183 6.37967 12.1317 5.04967 12.1317C4.30301 12.1317 3.70801 12.7267 3.70801 13.4733V15.5267C3.70801 16.2617 4.30301 16.8683 5.04967 16.8683C6.37967 16.8683 7.44134 17.3817 7.95467 18.28C8.46801 19.1783 8.38634 20.3567 7.72134 21.5C7.54634 21.8033 7.49967 22.165 7.59301 22.515C7.68634 22.865 7.90801 23.145 8.21134 23.3317L10.2297 24.4867C10.4747 24.6383 10.7663 24.6733 11.0347 24.6033C11.3147 24.5333 11.548 24.3467 11.6997 24.1017L11.828 23.88C12.493 22.7367 13.4613 22.0717 14.4997 22.0717Z" fill="white"/>
</svg>
