<svg width="28" height="29" viewBox="0 0 28 29" fill="none" xmlns="http://www.w3.org/2000/svg">
<path d="M14.0114 20.3335C13.0197 20.3335 12.0164 20.0768 11.2347 19.5752L4.21138 14.9902C2.90471 14.1385 2.12305 12.7035 2.12305 11.1402C2.12305 9.57683 2.90471 8.14183 4.21138 7.29016L11.2464 2.71683C12.8097 1.70183 15.248 1.70183 16.7997 2.7285L23.788 7.3135C25.083 8.16516 25.8647 9.60016 25.8647 11.1518C25.8647 12.7035 25.083 14.1385 23.788 14.9902L16.7997 19.5752C16.018 20.0885 15.0147 20.3335 14.0114 20.3335ZM14.0114 3.7085C13.3464 3.7085 12.6814 3.86016 12.203 4.18683L5.17971 8.76016C4.36305 9.29683 3.88471 10.1602 3.88471 11.1402C3.88471 12.1202 4.35138 12.9835 5.17971 13.5202L12.203 18.1052C13.1714 18.7352 14.8747 18.7352 15.843 18.1052L22.8314 13.5202C23.648 12.9835 24.1147 12.1202 24.1147 11.1402C24.1147 10.1602 23.648 9.29683 22.8314 8.76016L15.843 4.17516C15.353 3.87183 14.688 3.7085 14.0114 3.7085Z" fill="#757070"/>
<path d="M14 27.0414C13.4867 27.0414 12.9617 26.9714 12.5417 26.8314L8.82005 25.5948C7.05838 25.0114 5.67005 23.0864 5.68171 21.2314L5.69338 15.7598C5.69338 15.2814 6.09005 14.8848 6.56838 14.8848C7.04671 14.8848 7.44338 15.2814 7.44338 15.7598L7.43171 21.2314C7.43171 22.3281 8.34171 23.5881 9.38005 23.9381L13.1017 25.1748C13.5684 25.3264 14.4317 25.3264 14.8984 25.1748L18.62 23.9381C19.6584 23.5881 20.5684 22.3281 20.5684 21.2431V15.8298C20.5684 15.3514 20.965 14.9548 21.4434 14.9548C21.9217 14.9548 22.3184 15.3514 22.3184 15.8298V21.2431C22.3184 23.0981 20.9417 25.0114 19.1801 25.6064L15.4584 26.8431C15.0384 26.9714 14.5134 27.0414 14 27.0414Z" fill="#757070"/>
<path d="M24.9668 18.875C24.4885 18.875 24.0918 18.4783 24.0918 18V11C24.0918 10.5217 24.4885 10.125 24.9668 10.125C25.4451 10.125 25.8418 10.5217 25.8418 11V18C25.8418 18.4783 25.4451 18.875 24.9668 18.875Z" fill="#757070"/>
</svg>
