<svg width="16" height="16" viewBox="0 0 16 16" fill="none" xmlns="http://www.w3.org/2000/svg">
<path d="M14.1296 13.1325L11.373 10.376C12.0367 9.49248 12.395 8.41709 12.3937 7.31211C12.3937 4.48965 10.0975 2.19336 7.275 2.19336C4.45254 2.19336 2.15625 4.48965 2.15625 7.31211C2.15625 10.1346 4.45254 12.4309 7.275 12.4309C8.37998 12.4321 9.45537 12.0738 10.3389 11.4102L13.0954 14.1667C13.2349 14.2914 13.4169 14.358 13.604 14.3528C13.7911 14.3475 13.9691 14.2709 14.1014 14.1385C14.2338 14.0062 14.3104 13.8282 14.3157 13.6411C14.3209 13.454 14.2543 13.2721 14.1296 13.1325V13.1325ZM3.61875 7.31211C3.61875 6.58897 3.83318 5.88207 4.23494 5.2808C4.63669 4.67954 5.20772 4.21091 5.87581 3.93417C6.5439 3.65744 7.27905 3.58504 7.9883 3.72611C8.69754 3.86719 9.34902 4.21541 9.86036 4.72675C10.3717 5.23808 10.7199 5.88957 10.861 6.59881C11.0021 7.30805 10.9297 8.0432 10.6529 8.71129C10.3762 9.37938 9.90757 9.95041 9.3063 10.3522C8.70503 10.7539 7.99814 10.9684 7.275 10.9684C6.30566 10.9672 5.37635 10.5816 4.69092 9.89618C4.0055 9.21075 3.61991 8.28145 3.61875 7.31211V7.31211Z" fill="#2D3748"/>
</svg>
