<svg width="32" height="23" viewBox="0 0 32 23" fill="none" xmlns="http://www.w3.org/2000/svg">
<path d="M18.5666 11.1527C18.6143 11.1527 18.661 11.1428 18.7007 11.1241C18.7405 11.1053 18.7715 11.0787 18.79 11.0475C18.8085 11.0163 18.8136 10.9819 18.8047 10.9486C18.7957 10.9154 18.7731 10.8847 18.7397 10.8605L13.9929 7.43506C13.9591 7.41076 13.916 7.39412 13.8689 7.38728C13.8218 7.38044 13.7729 7.3837 13.7284 7.39665C13.6839 7.4096 13.6459 7.43165 13.6191 7.45999C13.5924 7.48833 13.5781 7.52169 13.5781 7.55581V10.6371C13.5781 10.7738 13.6547 10.905 13.7909 11.0017C13.9272 11.0984 14.112 11.1527 14.3047 11.1527H18.5666Z" fill="#2D3748"/>
<path d="M12.4277 11.9697C12.179 11.7956 11.9814 11.5882 11.8463 11.3596C11.7112 11.131 11.6413 10.8856 11.6406 10.6377V6.68457H7.28125C6.25447 6.68672 5.27061 6.97715 4.54456 7.49241C3.81852 8.00766 3.40928 8.70589 3.40625 9.43457V19.0596C3.40625 19.7889 3.81451 20.4884 4.54121 21.0041C5.26791 21.5198 6.25354 21.8096 7.28125 21.8096H16C17.0277 21.8096 18.0133 21.5198 18.74 21.0041C19.4667 20.4884 19.875 19.7889 19.875 19.0596V12.5283H14.3047C13.9553 12.528 13.6095 12.4784 13.2873 12.3825C12.9651 12.2866 12.673 12.1463 12.4277 11.9697Z" fill="#2D3748"/>
<path d="M23.0234 5.65272H27.2853C27.333 5.65275 27.3797 5.64278 27.4195 5.62405C27.4592 5.60533 27.4903 5.57869 27.5088 5.54748C27.5273 5.51627 27.5324 5.48187 27.5234 5.44861C27.5145 5.41536 27.4919 5.38471 27.4585 5.36053L22.7116 1.93506C22.6779 1.91076 22.6347 1.89412 22.5876 1.88728C22.5405 1.88044 22.4916 1.8837 22.4471 1.89665C22.4027 1.9096 22.3646 1.93165 22.3379 1.95999C22.3111 1.98833 22.2968 2.02169 22.2969 2.05581V5.13709C22.2969 5.27385 22.3734 5.405 22.5097 5.5017C22.6459 5.59839 22.8307 5.65272 23.0234 5.65272Z" fill="#2D3748"/>
<path d="M23.0234 7.02734C22.3185 7.02352 21.6441 6.8231 21.1456 6.46937C20.6472 6.11563 20.3648 5.63696 20.3594 5.13672V1.18359H13.8203C12.8572 1.18439 11.9338 1.45627 11.2528 1.93959C10.5717 2.42291 10.1886 3.0782 10.1875 3.76172V5.30859H12.7377C13.0632 5.30952 13.3853 5.35608 13.6854 5.4456C13.9855 5.53511 14.2576 5.66583 14.4863 5.83023L21.0956 10.5998C21.5567 10.9318 21.8142 11.3797 21.8119 11.8459V17.6836H25.0239C26.9923 17.6836 28.5931 16.5269 28.5931 15.1055V7.02734H23.0234Z" fill="#2D3748"/>
</svg>
