<svg width="28" height="25" viewBox="0 0 28 25" fill="none" xmlns="http://www.w3.org/2000/svg">
<path d="M23.7473 6.888C23.7792 6.87148 23.8056 6.84784 23.824 6.81942C23.8423 6.79101 23.852 6.75881 23.852 6.72604C23.852 6.69327 23.8423 6.66108 23.824 6.63266C23.8056 6.60425 23.7792 6.5806 23.7473 6.56409L15.6927 2.4044C15.1773 2.13887 14.5922 1.99902 13.9965 1.99902C13.4008 1.99902 12.8157 2.13887 12.3003 2.4044L4.24722 6.56409C4.21538 6.5806 4.18896 6.60425 4.1706 6.63266C4.15224 6.66108 4.14258 6.69327 4.14258 6.72604C4.14258 6.75881 4.15224 6.79101 4.1706 6.81942C4.18896 6.84784 4.21538 6.87148 4.24722 6.888L13.8913 11.9308C13.9237 11.9478 13.9607 11.9567 13.9983 11.9567C14.036 11.9567 14.0729 11.9478 14.1054 11.9308L23.7473 6.888Z" fill="#2D3748"/>
<path d="M3.34473 8.16282C3.31256 8.14631 3.27606 8.13764 3.23892 8.1377C3.20178 8.13775 3.16531 8.14652 3.1332 8.16312C3.10109 8.17972 3.07449 8.20356 3.05607 8.23224C3.03765 8.26091 3.02808 8.2934 3.02832 8.32641V16.4775C3.02912 16.8703 3.14559 17.2561 3.36615 17.5965C3.58671 17.9368 3.90367 18.22 4.28551 18.4177L12.8369 22.9753C12.869 22.9918 12.9053 23.0004 12.9423 23.0004C12.9793 23.0004 13.0157 22.9918 13.0478 22.9754C13.0798 22.9589 13.1065 22.9353 13.125 22.9068C13.1435 22.8783 13.1533 22.846 13.1533 22.8131V13.3561C13.1533 13.3232 13.1435 13.2909 13.125 13.2625C13.1065 13.234 13.0799 13.2104 13.0479 13.1939L3.34473 8.16282Z" fill="#2D3748"/>
<path d="M14.8408 13.389V22.8109C14.8409 22.8438 14.8506 22.8761 14.8692 22.9045C14.8877 22.933 14.9143 22.9567 14.9464 22.9731C14.9784 22.9895 15.0148 22.9982 15.0518 22.9982C15.0888 22.9982 15.1252 22.9895 15.1572 22.973L23.7081 18.4154C24.0897 18.2179 24.4065 17.9352 24.6271 17.5953C24.8477 17.2553 24.9645 16.87 24.9658 16.4776V8.32649C24.9657 8.29363 24.9558 8.26138 24.9373 8.23297C24.9187 8.20456 24.8921 8.18098 24.86 8.1646C24.828 8.14823 24.7917 8.13962 24.7547 8.13965C24.7177 8.13968 24.6814 8.14834 24.6494 8.16477L14.9463 13.2273C14.9143 13.2437 14.8878 13.2672 14.8693 13.2956C14.8508 13.324 14.841 13.3562 14.8408 13.389Z" fill="#2D3748"/>
</svg>
