<svg width="32" height="30" viewBox="0 0 32 30" fill="none" xmlns="http://www.w3.org/2000/svg">
<path d="M29.0674 7.17156C28.9977 7.04464 28.8968 6.93493 28.7732 6.85136C28.6495 6.76779 28.5065 6.71272 28.3558 6.69064C28.2051 6.66856 28.0509 6.68009 27.9058 6.72429C27.7608 6.76849 27.629 6.84411 27.5211 6.945L23.8011 10.4273C23.6184 10.5956 23.3724 10.69 23.116 10.69C22.8596 10.69 22.6135 10.5956 22.4309 10.4273L20.8228 8.92062C20.7328 8.83647 20.6614 8.73655 20.6127 8.62659C20.564 8.51662 20.5389 8.39876 20.5389 8.27974C20.5389 8.16071 20.564 8.04285 20.6127 7.93288C20.6614 7.82292 20.7328 7.723 20.8228 7.63885L24.527 4.17301C24.6381 4.06914 24.7204 3.94158 24.7671 3.80131C24.8137 3.66103 24.8232 3.51226 24.7947 3.36779C24.7663 3.22333 24.7007 3.08751 24.6036 2.97203C24.5066 2.85654 24.3809 2.76486 24.2376 2.70488C21.4397 1.53469 17.9474 2.14527 15.7453 4.19C13.8744 5.92773 13.3168 8.64308 14.2165 11.6399C14.265 11.7998 14.2653 11.969 14.2173 12.129C14.1693 12.2889 14.0749 12.4333 13.9446 12.5462L3.86479 21.1584C3.47211 21.4882 3.15537 21.8894 2.9339 22.3375C2.71242 22.7856 2.59086 23.2713 2.57661 23.7648C2.56237 24.2583 2.65574 24.7493 2.85105 25.208C3.04635 25.6666 3.33948 26.0832 3.71256 26.4324C4.08565 26.7815 4.53086 27.056 5.02104 27.2389C5.51122 27.4218 6.03609 27.5093 6.56364 27.4962C7.09119 27.4831 7.61036 27.3696 8.08947 27.1626C8.56858 26.9556 8.99759 26.6595 9.35034 26.2923L18.6552 16.8418C18.7741 16.7215 18.9259 16.6338 19.0941 16.5882C19.2624 16.5426 19.4407 16.5408 19.61 16.583C20.522 16.8167 21.4628 16.938 22.4085 16.9438C24.4307 16.9438 26.2054 16.3315 27.4853 15.1517C29.8557 12.967 30.2172 9.2616 29.0674 7.17156ZM6.66145 25.6721C6.26269 25.7128 5.86025 25.6367 5.50967 25.4544C5.15909 25.272 4.87765 24.9924 4.70421 24.654C4.53076 24.3156 4.47385 23.9353 4.54133 23.5654C4.60881 23.1955 4.79736 22.8543 5.08096 22.5889C5.36455 22.3235 5.7292 22.147 6.12459 22.0837C6.51998 22.0205 6.92661 22.0736 7.28837 22.2357C7.65012 22.3978 7.94916 22.661 8.14422 22.9889C8.33928 23.3168 8.42073 23.6933 8.37735 24.0663C8.32961 24.4768 8.13351 24.8597 7.82148 25.1517C7.50945 25.4437 7.1002 25.6273 6.66145 25.6721Z" fill="#2D3748"/>
</svg>
