<svg width="15" height="15" viewBox="0 0 15 15" fill="none" xmlns="http://www.w3.org/2000/svg">
<rect x="0.208984" y="0.40625" width="13.8609" height="13.9251" stroke="url(#paint0_linear_2491_2334)" stroke-opacity="0.33" stroke-width="0.0234375"/>
<path d="M9.66975 2.28262C10.3404 2.28463 10.9831 2.55319 11.4574 3.02963C11.9316 3.50608 12.1989 4.15171 12.2009 4.82551V9.91074C12.1989 10.5845 11.9316 11.2302 11.4574 11.7066C10.9831 12.1831 10.3404 12.4516 9.66975 12.4536H4.60794C3.93724 12.4516 3.29459 12.1831 2.82034 11.7066C2.34608 11.2302 2.07876 10.5845 2.07676 9.91074V4.82551C2.07876 4.15171 2.34608 3.50608 2.82034 3.02963C3.29459 2.55319 3.93724 2.28463 4.60794 2.28262H9.66975ZM9.66975 1.26562H4.60794C2.65898 1.26563 1.06445 2.86753 1.06445 4.82551V9.91074C1.06445 11.8687 2.65898 13.4706 4.60794 13.4706H9.66975C11.6187 13.4706 13.2132 11.8687 13.2132 9.91074V4.82551C13.2132 2.86753 11.6187 1.26562 9.66975 1.26562Z" fill="#3182CE"/>
<path d="M10.4292 4.82543C10.279 4.82543 10.1322 4.78069 10.0074 4.69687C9.88251 4.61305 9.78519 4.49392 9.72772 4.35453C9.67025 4.21515 9.65521 4.06177 9.68451 3.9138C9.71381 3.76583 9.78613 3.62991 9.89232 3.52323C9.99851 3.41655 10.1338 3.3439 10.2811 3.31446C10.4284 3.28503 10.581 3.30014 10.7198 3.35787C10.8585 3.41561 10.9771 3.51338 11.0606 3.63882C11.144 3.76427 11.1885 3.91175 11.1885 4.06262C11.1887 4.16285 11.1692 4.26214 11.1312 4.35479C11.0931 4.44743 11.0372 4.53161 10.9666 4.60249C10.8961 4.67336 10.8123 4.72954 10.72 4.7678C10.6278 4.80606 10.529 4.82564 10.4292 4.82543Z" fill="#3182CE"/>
<path d="M7.13876 5.33437C7.53924 5.33437 7.93074 5.45368 8.26373 5.67721C8.59672 5.90074 8.85625 6.21844 9.00951 6.59016C9.16277 6.96187 9.20287 7.37089 9.12474 7.76549C9.04661 8.1601 8.85376 8.52257 8.57057 8.80707C8.28739 9.09156 7.92659 9.28531 7.5338 9.3638C7.14101 9.44229 6.73387 9.40201 6.36387 9.24804C5.99387 9.09407 5.67762 8.83334 5.45513 8.4988C5.23263 8.16427 5.11387 7.77097 5.11387 7.36863C5.11445 6.82929 5.32797 6.3122 5.70758 5.93083C6.0872 5.54946 6.6019 5.33495 7.13876 5.33437ZM7.13876 4.31738C6.53806 4.31738 5.95085 4.49634 5.45138 4.83161C4.95192 5.16689 4.56263 5.64343 4.33276 6.20097C4.10288 6.75851 4.04273 7.37202 4.15992 7.9639C4.27711 8.55578 4.56638 9.09946 4.99114 9.52619C5.4159 9.95291 5.95707 10.2435 6.54623 10.3613C7.13539 10.479 7.74607 10.4186 8.30104 10.1876C8.85602 9.95668 9.33036 9.56559 9.6641 9.06381C9.99783 8.56204 10.176 7.97211 10.176 7.36863C10.176 6.55939 9.85597 5.78329 9.28638 5.21107C8.7168 4.63885 7.94427 4.31738 7.13876 4.31738Z" fill="#3182CE"/>
<defs>
<linearGradient id="paint0_linear_2491_2334" x1="0.197266" y1="0.394531" x2="13.9477" y2="0.394531" gradientUnits="userSpaceOnUse">
<stop stop-color="#E0E1E2" stop-opacity="0"/>
<stop offset="0.5" stop-color="#E0E1E2"/>
<stop offset="1" stop-color="#E0E1E2" stop-opacity="0.15625"/>
</linearGradient>
</defs>
</svg>
