<svg width="73" height="70" viewBox="0 0 73 70" fill="none" xmlns="http://www.w3.org/2000/svg">
<path d="M70.2311 10.9713L37.7853 0.209328C36.9543 -0.0697761 36.0543 -0.0697761 35.2234 0.209328L2.77759 10.9713C2.0034 11.2264 1.3245 11.7079 0.829495 12.3528C0.334494 12.9978 0.0463925 13.7762 0.00279658 14.5866C-0.000932192 14.6572 -0.000932192 14.7279 0.00279658 14.7985V41.7033C0.00279658 42.7736 0.430095 43.8001 1.19069 44.557C1.95129 45.3138 2.98288 45.739 4.05852 45.739C5.13417 45.739 6.16576 45.3138 6.92635 44.557C7.68695 43.8001 8.11425 42.7736 8.11425 41.7033V20.398L16.1277 23.0549C13.6407 27.7918 12.9017 33.2465 14.0392 38.4696C15.1767 43.6928 18.1187 48.3537 22.3532 51.6412C16.8118 54.3604 12.1221 58.5339 8.7902 63.7114C8.49016 64.1552 8.28175 64.6538 8.17708 65.1784C8.07242 65.703 8.07359 66.2431 8.18053 66.7672C8.28747 67.2914 8.49804 67.7891 8.80001 68.2316C9.10198 68.674 9.48931 69.0524 9.93951 69.3446C10.3897 69.6367 10.8938 69.837 11.4224 69.9336C11.9511 70.0302 12.4937 70.0213 13.0189 69.9074C13.544 69.7935 14.0412 69.5769 14.4815 69.2701C14.9218 68.9633 15.2964 68.5725 15.5835 68.1204C20.4065 60.7351 28.0549 56.5009 36.5043 56.5009C44.9538 56.5009 52.6022 60.7351 57.442 68.1204C57.7292 68.5725 58.1038 68.9633 58.5441 69.2701C58.9843 69.5769 59.4815 69.7935 60.0067 69.9074C60.5318 70.0213 61.0745 70.0302 61.6031 69.9336C62.1318 69.837 62.6358 69.6367 63.086 69.3446C63.5362 69.0524 63.9236 68.674 64.2255 68.2316C64.5275 67.7891 64.7381 67.2914 64.845 66.7672C64.952 66.2431 64.9531 65.703 64.8485 65.1784C64.7438 64.6538 64.5354 64.1552 64.2353 63.7114C60.9003 58.5279 56.2043 54.3505 50.6554 51.6312C54.89 48.3436 57.832 43.6827 58.9695 38.4596C60.107 33.2364 59.3679 27.7817 56.881 23.0448L70.2311 18.6156C71.0376 18.3471 71.7389 17.8331 72.2358 17.1463C72.7327 16.4595 73 15.6346 73 14.7884C73 13.9421 72.7327 13.1173 72.2358 12.4305C71.7389 11.7437 71.0376 11.2297 70.2311 10.9612V10.9713ZM36.5043 8.28077L56.1239 14.7985L36.5043 21.3061L16.9017 14.7985L36.5043 8.28077ZM51.3753 33.6318C51.3757 35.9303 50.8381 38.1972 49.805 40.253C48.7719 42.3087 47.2717 44.0968 45.4235 45.4753C43.5752 46.8538 41.4296 47.785 39.1568 48.195C36.884 48.6049 34.5465 48.4824 32.3295 47.8372C30.1125 47.1919 28.0771 46.0416 26.3846 44.4775C24.6921 42.9134 23.3889 40.9785 22.5786 38.8261C21.7682 36.6738 21.4728 34.3632 21.7159 32.0775C21.959 29.7918 22.7338 27.5938 23.9789 25.6579L35.2234 29.3876C36.0545 29.6655 36.9541 29.6655 37.7853 29.3876L49.0298 25.6579C50.5634 28.0373 51.3776 30.8051 51.3753 33.6318Z" fill="#152259"/>
</svg>
